<svg width="118" height="31" viewBox="0 0 118 31" fill="none" xmlns="http://www.w3.org/2000/svg">
<g clip-path="url(#clip0_40_6278)">
<path d="M0 0.0692203C2.22892 0.0692203 4.33444 0.0550351 6.43839 0.0944383C6.62347 0.0975906 6.88607 0.414392 6.96991 0.638202C7.49827 2.06144 7.9855 3.49887 8.67047 4.97255C8.80335 4.63053 8.94414 4.29009 9.06595 3.94492C9.45668 2.82902 9.82843 1.70682 10.2397 0.598799C10.3157 0.393902 10.5419 0.0960144 10.7032 0.0928622C12.8847 0.0597635 15.0646 0.0707964 17.3947 0.0707964C16.02 4.02215 14.6881 7.85213 13.2991 11.8476C14.3559 11.8476 15.3145 11.8791 16.2668 11.8177C16.4408 11.8066 16.6528 11.4347 16.7398 11.1919C17.9769 7.7024 19.2076 4.20971 20.4067 0.707552C20.5728 0.223681 20.7911 0.0487306 21.2989 0.0566113C23.0643 0.0818293 24.8313 0.0818293 26.5967 0.0566113C27.0982 0.0487306 27.3434 0.206343 27.5016 0.698095C27.9587 2.11661 28.4744 3.51621 29.1657 4.93945C29.4758 4.07101 29.7795 3.19941 30.0991 2.33254C30.3696 1.59806 30.4629 0.592494 30.996 0.2158C31.5323 -0.16247 32.5146 0.0723725 33.3009 0.066068C34.7752 0.0550351 36.2495 0.0629158 37.8473 0.0629158C37.5388 0.96446 37.2588 1.79193 36.9709 2.61624C35.5693 6.63379 34.163 10.6498 32.7662 14.6689C32.6823 14.9085 32.5779 15.2048 32.6491 15.4223C33.1174 16.8629 33.6299 18.2892 34.2041 19.9442C34.3845 19.5533 34.4889 19.3673 34.5569 19.1687C36.6988 13.0455 38.8455 6.9238 40.9621 0.792663C41.1456 0.261508 41.3607 0.04085 41.9508 0.0518829C43.9234 0.0897099 45.8976 0.066068 48 0.066068C47.9003 0.41912 47.8386 0.685486 47.7501 0.940818C44.4549 10.3881 41.1519 19.8339 37.871 29.2859C37.6859 29.8186 37.4423 30.0078 36.8681 29.9936C35.1027 29.951 33.3357 29.9526 31.5702 29.9904C31.0166 30.003 30.7904 29.8218 30.6353 29.3032C30.3095 28.2236 29.9061 27.166 29.528 26.1021C29.4362 25.8452 29.3192 25.5962 29.1278 25.1375C28.5773 26.6932 28.0821 28.036 27.6344 29.3931C27.4968 29.8092 27.3133 29.992 26.8609 29.9873C24.8835 29.9683 22.9077 29.9794 20.9303 29.9746C20.8069 29.9746 20.6851 29.9368 20.4731 29.9021C21.7988 26.0927 23.1038 22.3383 24.4643 18.4279C23.3237 18.4279 22.3081 18.3917 21.3005 18.461C21.1154 18.4737 20.8971 18.8961 20.8006 19.1671C19.6189 22.5101 18.4404 25.8531 17.3077 29.2134C17.1021 29.8249 16.8157 30.0156 16.1846 29.9983C14.5251 29.9542 12.8625 29.9605 11.2031 29.9999C10.6083 30.0141 10.3093 29.8423 10.1322 29.2528C9.78255 28.0975 9.34911 26.9674 8.94414 25.8294C8.88561 25.6655 8.79228 25.5158 8.64199 25.2069C8.12945 26.6601 7.64222 27.9572 7.21985 29.2749C7.04742 29.8123 6.79274 30.0062 6.21534 29.9967C4.19207 29.9605 2.16722 29.9825 0.00949148 29.9825C0.26418 29.2134 0.474574 28.5514 0.703951 27.8957C2.10711 23.8798 3.52925 19.8701 4.8976 15.8415C5.05738 15.3687 5.06054 14.7493 4.90077 14.2764C3.38846 9.85224 1.83027 5.44381 0.28949 1.03066C0.196157 0.762716 0.124971 0.486894 0 0.0692203ZM13.8259 21.7867C13.7484 21.7882 13.6709 21.7914 13.5934 21.793C13.2659 20.8631 12.9037 19.9426 12.6237 18.9969C12.4655 18.4658 12.1444 18.4027 11.6777 18.4012C11.2316 18.3996 10.95 18.4941 10.795 18.9686C10.3046 20.4643 9.74933 21.9396 9.26527 23.4385C9.16244 23.76 9.16719 24.1714 9.2716 24.4929C9.7256 25.8909 10.254 27.2653 10.7111 28.6617C10.8598 29.1188 11.0797 29.2764 11.5543 29.267C12.9242 29.2386 14.2973 29.2197 15.6641 29.2749C16.3143 29.3016 16.5721 29.0668 16.7762 28.4742C19.0367 21.9222 21.3258 15.3797 23.6085 8.83406C23.686 8.61025 23.7793 8.39275 23.8663 8.17366C24.401 9.21233 24.7886 10.2147 25.1018 11.2392C25.2568 11.7467 25.5337 11.8791 26.0225 11.8713C26.4828 11.8634 26.7992 11.8177 26.9685 11.2834C27.4462 9.78289 28.0078 8.30921 28.5013 6.81347C28.5915 6.5408 28.5963 6.18774 28.5077 5.91507C27.9983 4.36889 27.4699 2.82902 26.8894 1.30806C26.8008 1.07479 26.4227 0.816304 26.168 0.805272C24.7997 0.753259 23.4281 0.800543 22.0582 0.759564C21.4191 0.74065 21.0869 0.925057 20.8639 1.57442C19.1111 6.69053 17.3156 11.794 15.5328 16.9007C14.9665 18.532 14.3954 20.1585 13.8259 21.7867ZM46.9892 0.846251C46.5715 0.821033 46.2947 0.792662 46.0163 0.791086C44.8821 0.786358 43.7478 0.828913 42.6167 0.773749C41.9413 0.74065 41.6629 0.999135 41.4477 1.62171C39.1967 8.1516 36.914 14.6705 34.636 21.1909C34.5395 21.4667 34.4066 21.7299 34.2105 22.1839C33.5097 20.2011 32.888 18.439 32.222 16.5555C32.0828 16.7667 32.0084 16.8408 31.9784 16.929C31.2048 19.1341 30.4249 21.3391 29.6783 23.5535C29.5944 23.7994 29.6356 24.1272 29.7194 24.3841C30.1892 25.8058 30.7049 27.2101 31.1732 28.6318C31.3266 29.0999 31.5592 29.289 32.0749 29.2764C33.4448 29.2386 34.8179 29.2165 36.1863 29.2812C36.906 29.3158 37.1813 29.0321 37.4012 28.3985C40.1063 20.5809 42.8382 12.7728 45.5623 4.96309C46.0274 3.62811 46.4861 2.29629 46.9892 0.846251ZM5.52879 13.7926C5.69014 13.4947 5.75026 13.4111 5.78348 13.3166C6.54912 11.1399 7.31951 8.9633 8.06618 6.77879C8.14369 6.55025 8.14211 6.24921 8.0646 6.01752C7.52991 4.42879 6.97307 2.84478 6.39884 1.26708C6.33082 1.08109 6.10935 0.817881 5.95432 0.814728C4.35817 0.78163 2.76044 0.794239 0.996606 0.794239C2.52157 5.16799 3.99117 9.38413 5.52879 13.7926ZM24.5117 11.8035C24.3346 11.3039 24.189 10.8972 24.0451 10.4906C23.9755 10.4906 23.9059 10.4906 23.8363 10.4906C23.6955 10.9019 23.5547 11.3149 23.387 11.8035C23.7999 11.8035 24.091 11.8035 24.5117 11.8035ZM13.5934 19.5628C13.6693 19.5612 13.7468 19.5612 13.8228 19.5596C13.9303 19.2144 14.0363 18.8708 14.1787 18.4153C13.8038 18.439 13.5681 18.4532 13.2406 18.4737C13.3798 18.9087 13.4858 19.2365 13.5934 19.5628Z" fill="url(#paint0_linear_40_6278)"/>
</g>
<path d="M58.888 14L55.256 2.8H58.52L61.576 12.496H59.928L63.144 2.8H66.056L69.096 12.496H67.512L70.664 2.8H73.688L70.056 14H66.664L64.072 5.76H64.984L62.28 14H58.888ZM73.0885 14L78.0325 2.8H81.1525L86.1125 14H82.8165L78.9445 4.352H80.1925L76.3205 14H73.0885ZM75.7925 11.824L76.6085 9.488H82.0805L82.8965 11.824H75.7925ZM87.0106 14V2.8H92.1306C93.1546 2.8 94.0346 2.96533 94.7706 3.296C95.5173 3.62667 96.0933 4.10667 96.4986 4.736C96.904 5.35467 97.1066 6.09067 97.1066 6.944C97.1066 7.78667 96.904 8.51733 96.4986 9.136C96.0933 9.744 95.5173 10.2133 94.7706 10.544C94.0346 10.864 93.1546 11.024 92.1306 11.024H88.7706L90.1786 9.696V14H87.0106ZM93.9386 14L91.1546 9.92H94.5306L97.3306 14H93.9386ZM90.1786 10.032L88.7706 8.576H91.9386C92.6 8.576 93.0906 8.432 93.4106 8.144C93.7413 7.856 93.9066 7.456 93.9066 6.944C93.9066 6.42133 93.7413 6.016 93.4106 5.728C93.0906 5.44 92.6 5.296 91.9386 5.296H88.7706L90.1786 3.84V10.032ZM101.766 7.136H106.966V9.504H101.766V7.136ZM101.99 11.552H107.846V14H98.8544V2.8H107.638V5.248H101.99V11.552ZM63.608 18.8H66.776V30H63.608V18.8ZM59.288 30H56.12V18.8H59.288V30ZM63.832 25.632H59.064V23.008H63.832V25.632ZM74.6586 30.224C73.7626 30.224 72.936 30.08 72.1786 29.792C71.4213 29.504 70.76 29.0987 70.1946 28.576C69.64 28.0427 69.208 27.424 68.8986 26.72C68.5893 26.016 68.4346 25.2427 68.4346 24.4C68.4346 23.5573 68.5893 22.784 68.8986 22.08C69.208 21.376 69.64 20.7627 70.1946 20.24C70.76 19.7067 71.4213 19.296 72.1786 19.008C72.936 18.72 73.7626 18.576 74.6586 18.576C75.5653 18.576 76.392 18.72 77.1386 19.008C77.896 19.296 78.552 19.7067 79.1066 20.24C79.6613 20.7627 80.0933 21.376 80.4026 22.08C80.7226 22.784 80.8826 23.5573 80.8826 24.4C80.8826 25.2427 80.7226 26.0213 80.4026 26.736C80.0933 27.44 79.6613 28.0533 79.1066 28.576C78.552 29.0987 77.896 29.504 77.1386 29.792C76.392 30.08 75.5653 30.224 74.6586 30.224ZM74.6586 27.6C75.0853 27.6 75.48 27.5253 75.8426 27.376C76.216 27.2267 76.536 27.0133 76.8026 26.736C77.08 26.448 77.2933 26.1067 77.4426 25.712C77.6026 25.3173 77.6826 24.88 77.6826 24.4C77.6826 23.9093 77.6026 23.472 77.4426 23.088C77.2933 22.6933 77.08 22.3573 76.8026 22.08C76.536 21.792 76.216 21.5733 75.8426 21.424C75.48 21.2747 75.0853 21.2 74.6586 21.2C74.232 21.2 73.832 21.2747 73.4586 21.424C73.096 21.5733 72.776 21.792 72.4986 22.08C72.232 22.3573 72.0186 22.6933 71.8586 23.088C71.7093 23.472 71.6346 23.9093 71.6346 24.4C71.6346 24.88 71.7093 25.3173 71.8586 25.712C72.0186 26.1067 72.232 26.448 72.4986 26.736C72.776 27.0133 73.096 27.2267 73.4586 27.376C73.832 27.5253 74.232 27.6 74.6586 27.6ZM87.7099 30.224C86.0565 30.224 84.7659 29.7707 83.8379 28.864C82.9099 27.9573 82.4459 26.672 82.4459 25.008V18.8H85.6139V24.912C85.6139 25.872 85.8005 26.56 86.1739 26.976C86.5579 27.392 87.0805 27.6 87.7419 27.6C88.4032 27.6 88.9205 27.392 89.2939 26.976C89.6672 26.56 89.8539 25.872 89.8539 24.912V18.8H92.9739V25.008C92.9739 26.672 92.5099 27.9573 91.5819 28.864C90.6539 29.7707 89.3632 30.224 87.7099 30.224ZM99.056 30.224C98.1387 30.224 97.2533 30.112 96.4 29.888C95.5573 29.6533 94.8693 29.3547 94.336 28.992L95.376 26.656C95.8773 26.976 96.4533 27.2427 97.104 27.456C97.7653 27.6587 98.4213 27.76 99.072 27.76C99.5093 27.76 99.8613 27.7227 100.128 27.648C100.395 27.5627 100.587 27.456 100.704 27.328C100.832 27.1893 100.896 27.0293 100.896 26.848C100.896 26.592 100.779 26.3893 100.544 26.24C100.309 26.0907 100.005 25.968 99.632 25.872C99.2587 25.776 98.8427 25.68 98.384 25.584C97.936 25.488 97.4827 25.3653 97.024 25.216C96.576 25.0667 96.1653 24.8747 95.792 24.64C95.4187 24.3947 95.1147 24.08 94.88 23.696C94.6453 23.3013 94.528 22.8053 94.528 22.208C94.528 21.536 94.7093 20.928 95.072 20.384C95.4453 19.84 96 19.4027 96.736 19.072C97.472 18.7413 98.3893 18.576 99.488 18.576C100.224 18.576 100.944 18.6613 101.648 18.832C102.363 18.992 102.997 19.232 103.552 19.552L102.576 21.904C102.043 21.616 101.515 21.4027 100.992 21.264C100.469 21.1147 99.9627 21.04 99.472 21.04C99.0347 21.04 98.6827 21.088 98.416 21.184C98.1493 21.2693 97.9573 21.3867 97.84 21.536C97.7227 21.6853 97.664 21.856 97.664 22.048C97.664 22.2933 97.776 22.4907 98 22.64C98.2347 22.7787 98.5387 22.896 98.912 22.992C99.296 23.0773 99.712 23.168 100.16 23.264C100.619 23.36 101.072 23.4827 101.52 23.632C101.979 23.7707 102.395 23.9627 102.768 24.208C103.141 24.4427 103.44 24.7573 103.664 25.152C103.899 25.536 104.016 26.0213 104.016 26.608C104.016 27.2587 103.829 27.8613 103.456 28.416C103.093 28.96 102.544 29.3973 101.808 29.728C101.083 30.0587 100.165 30.224 99.056 30.224ZM108.391 23.136H113.591V25.504H108.391V23.136ZM108.615 27.552H114.471V30H105.479V18.8H114.263V21.248H108.615V27.552Z" fill="url(#paint1_linear_40_6278)"/>
<defs>
<linearGradient id="paint0_linear_40_6278" x1="25.8643" y1="-0.000128712" x2="25.2357" y2="29.9464" gradientUnits="userSpaceOnUse">
<stop stop-color="white"/>
<stop offset="0.588542" stop-color="#FFB291"/>
<stop offset="1" stop-color="#FF4D00"/>
</linearGradient>
<linearGradient id="paint1_linear_40_6278" x1="49.5" y1="14" x2="117.991" y2="13.1962" gradientUnits="userSpaceOnUse">
<stop stop-color="white"/>
<stop offset="0.588542" stop-color="#FFB291"/>
<stop offset="1" stop-color="#FF4D00"/>
</linearGradient>
<clipPath id="clip0_40_6278">
<rect width="48" height="30" fill="white"/>
</clipPath>
</defs>
</svg>
