<svg xmlns="http://www.w3.org/2000/svg" width="24" height="24" viewBox="0 0 24 24">
  <g id="Group_4241" data-name="Group 4241" transform="translate(-7 -135)">
    <g id="Group_4071" data-name="Group 4071" transform="translate(-15 -191)">
      <circle id="Ellipse_719" data-name="Ellipse 719" cx="12" cy="12" r="12" transform="translate(22 326)" fill="#079bb9"/>
    </g>
    <path id="ic_content_copy_24px" d="M10.105,1H3.158A1.161,1.161,0,0,0,2,2.158v8.105H3.158V2.158h6.947Zm1.737,2.316H5.474A1.161,1.161,0,0,0,4.316,4.474v8.105a1.161,1.161,0,0,0,1.158,1.158h6.368A1.161,1.161,0,0,0,13,12.579V4.474A1.161,1.161,0,0,0,11.842,3.316Zm0,9.263H5.474V4.474h6.368Z" transform="translate(12 139.526)" fill="#fff"/>
  </g>
</svg>
